<?xml version="1.0" standalone="no"?>
<!DOCTYPE svg PUBLIC "-//W3C//DTD SVG 20010904//EN"
 "http://www.w3.org/TR/2001/REC-SVG-20010904/DTD/svg10.dtd">
<svg version="1.0" xmlns="http://www.w3.org/2000/svg"
 width="1280.000000pt" height="640.000000pt" viewBox="0 0 1280.000000 640.000000"
 preserveAspectRatio="xMidYMid meet">
<metadata>
Created by potrace 1.15, written by Peter Selinger 2001-2017
</metadata>
<g transform="translate(0.000000,640.000000) scale(0.100000,-0.100000)"
fill="#000000" stroke="none">
<path d="M6608 6065 c-3 -82 -5 -96 -24 -130 -17 -32 -17 -35 -1 -53 21 -23
21 -36 1 -53 -15 -12 -14 -14 1 -19 15 -5 11 -10 -19 -28 -44 -26 -46 -50 -6
-95 41 -47 49 -91 21 -109 -27 -16 -27 -50 -1 -73 13 -12 20 -29 18 -44 -2
-19 -13 -28 -49 -40 -26 -9 -54 -22 -63 -30 -26 -22 -48 -71 -39 -84 12 -16
-417 -437 -474 -466 -23 -11 -55 -21 -71 -21 -21 0 -31 -6 -35 -20 -3 -14 -14
-20 -32 -20 -22 0 -25 -3 -20 -20 5 -14 2 -20 -9 -20 -20 0 -20 0 -1 -37 19
-38 14 -52 -30 -80 -68 -45 -272 -222 -353 -307 -152 -161 -297 -415 -348
-612 -22 -82 -27 -129 -31 -271 -5 -164 -5 -173 16 -199 24 -31 27 -80 6 -108
-8 -11 -15 -34 -15 -52 l0 -32 -72 -7 c-40 -4 -102 -5 -137 -3 l-64 3 -51 88
c-90 156 -248 304 -437 408 -77 43 -94 64 -64 75 8 4 15 12 15 20 0 12 -18 22
-91 52 -15 6 -43 25 -63 43 -39 34 -190 209 -181 209 3 0 -1 13 -10 30 -17 32
-43 50 -74 50 -31 0 -33 16 -6 48 30 36 30 36 4 61 -28 26 -20 71 21 118 37
42 38 68 3 86 -30 16 -38 49 -20 85 8 18 8 31 -2 55 -14 34 -19 61 -20 115 -2
56 -21 25 -21 -33 0 -32 -7 -65 -17 -83 -17 -29 -17 -31 2 -52 20 -22 20 -22
0 -36 -16 -12 -17 -16 -6 -23 10 -7 7 -12 -15 -22 -39 -19 -43 -57 -9 -97 36
-43 42 -83 16 -106 -25 -22 -27 -54 -6 -62 21 -8 19 -43 -2 -50 -58 -19 -72
-28 -84 -57 -7 -18 -37 -57 -66 -87 -29 -30 -53 -58 -53 -62 0 -14 -23 -8 -35
9 -8 11 -10 24 -5 33 4 8 4 35 0 60 -5 25 -6 48 -4 52 3 4 2 24 -2 44 -11 60
-24 17 -27 -91 -3 -95 -3 -96 -35 -121 -18 -14 -32 -32 -32 -40 0 -8 -11 -19
-25 -24 -24 -9 -36 -40 -15 -40 6 0 10 -4 10 -10 0 -5 -10 -10 -22 -10 -13 0
-30 -5 -38 -10 -13 -8 -13 -13 3 -39 9 -16 17 -32 17 -35 0 -3 -39 -26 -87
-50 -106 -53 -149 -84 -244 -173 -116 -110 -204 -239 -254 -375 -10 -27 -21
-48 -26 -48 -14 0 -69 52 -69 66 0 8 -6 14 -13 14 -17 0 -75 43 -94 69 -10 16
-11 26 -3 41 6 11 7 26 3 33 -4 6 -8 23 -9 37 -2 88 -5 105 -14 88 -6 -9 -11
-38 -13 -65 -2 -27 -6 -54 -10 -60 -4 -7 -2 -21 4 -31 10 -16 8 -25 -11 -52
-13 -18 -38 -39 -56 -46 -19 -8 -34 -21 -34 -29 0 -8 -4 -15 -9 -15 -5 0 -30
-21 -56 -46 -47 -48 -85 -110 -85 -140 0 -10 -7 -26 -16 -36 -11 -12 -17 -36
-17 -73 0 -62 13 -53 -125 -87 -30 -7 -54 -17 -55 -22 -1 -5 32 -17 73 -28 41
-11 80 -24 87 -30 8 -6 13 -35 13 -72 1 -33 7 -83 14 -111 12 -43 12 -52 0
-61 -8 -6 -79 -14 -161 -18 -82 -3 -194 -9 -250 -12 l-102 -7 0 268 c-1 191 2
272 10 282 9 9 9 17 2 24 -7 7 -7 21 -3 37 5 15 12 41 17 57 4 17 18 34 31 40
27 12 24 28 -9 35 -13 3 -25 14 -27 25 -2 11 -15 30 -30 42 -24 20 -27 30 -28
85 -2 139 -4 164 -14 147 -5 -9 -10 -58 -12 -110 -2 -87 -4 -96 -29 -119 -14
-14 -29 -33 -32 -42 -4 -10 -12 -18 -20 -18 -7 0 -19 -6 -25 -12 -10 -10 -8
-16 8 -28 26 -19 53 -119 37 -138 -8 -10 -8 -15 1 -21 9 -6 10 -72 5 -282 l-8
-274 -95 -6 c-52 -4 -185 -10 -295 -14 l-199 -8 32 37 c49 56 51 54 -78 79
l-65 12 -3 43 c-2 24 2 49 7 56 8 10 7 21 -4 42 -20 39 -20 228 0 264 9 16 14
55 15 107 l0 82 48 6 c94 12 194 48 162 59 -8 2 -57 17 -109 33 -97 29 -113
42 -92 75 9 15 9 23 0 34 -6 7 -8 25 -5 39 5 20 2 26 -19 31 -20 5 -25 12 -25
38 0 48 -54 132 -110 172 -28 20 -48 40 -45 45 3 4 -11 17 -32 28 -21 10 -53
35 -72 55 -33 34 -33 36 -18 59 14 21 14 27 2 43 -8 12 -10 25 -5 34 5 9 5 22
1 29 -5 7 -6 33 -3 57 3 29 1 44 -7 44 -7 0 -11 -19 -11 -49 0 -28 -5 -53 -10
-56 -8 -5 -7 -11 0 -20 9 -11 8 -19 -3 -36 -14 -19 -14 -24 -1 -44 14 -21 12
-24 -30 -63 -25 -23 -56 -44 -70 -48 -13 -3 -23 -11 -21 -17 3 -7 -19 -28 -48
-47 -62 -42 -117 -119 -117 -165 0 -19 -8 -39 -20 -50 -11 -10 -20 -31 -20
-46 0 -15 -5 -31 -10 -34 -8 -5 -7 -11 1 -21 19 -24 3 -40 -52 -52 -30 -7 -74
-26 -98 -42 -24 -17 -49 -30 -55 -30 -31 -1 27 -18 81 -24 35 -4 78 -13 97
-21 l34 -15 5 -102 c2 -57 6 -141 9 -188 3 -58 0 -101 -10 -135 -9 -27 -16
-74 -16 -104 l-1 -54 -45 -12 c-71 -19 -100 -33 -100 -49 0 -24 61 -88 78 -81
8 3 29 -4 47 -15 l32 -20 -5 -138 c-3 -101 -8 -139 -18 -145 -19 -11 -17 -44
2 -55 16 -9 16 -54 0 -628 -9 -341 -16 -685 -16 -766 l0 -148 6240 0 6240 0 0
744 c0 652 2 745 15 750 20 7 19 23 -5 53 -18 23 -20 41 -20 157 l0 131 35 23
c19 12 41 22 48 22 16 0 51 37 60 63 5 13 -7 34 -40 73 l-47 54 -68 0 -68 0 0
48 c0 28 -8 64 -20 87 -29 58 -29 199 2 251 18 31 20 40 10 68 -19 51 -15 130
6 149 21 19 122 47 169 47 86 0 26 50 -97 80 -95 23 -109 32 -90 55 7 9 8 19
1 32 -5 10 -15 45 -22 78 -7 33 -20 76 -30 95 -20 41 -83 106 -121 126 -22 11
-28 22 -28 47 1 44 32 64 128 83 137 28 131 24 116 60 -12 30 -18 32 -121 54
-122 25 -141 35 -119 59 13 14 12 24 -4 76 -11 33 -26 86 -35 118 -20 72 -70
130 -161 184 -48 29 -63 43 -61 58 1 15 -5 21 -23 23 -27 4 -96 50 -122 81
-19 23 -24 61 -8 61 14 0 12 23 -5 56 -10 20 -11 32 -4 40 6 8 7 23 3 36 -4
13 -6 40 -5 61 1 20 -3 37 -9 37 -6 0 -10 -23 -10 -54 0 -34 -5 -56 -12 -59
-10 -4 -10 -7 0 -18 17 -19 15 -50 -5 -64 -17 -13 -17 -14 0 -32 9 -11 17 -27
17 -35 0 -16 -113 -120 -142 -131 -10 -3 -18 -13 -18 -21 0 -9 -27 -33 -59
-55 -98 -67 -161 -160 -161 -238 0 -13 -4 -23 -10 -23 -5 0 -10 -18 -10 -39 0
-22 -5 -43 -10 -46 -7 -4 -7 -12 0 -25 25 -46 14 -58 -72 -84 -46 -13 -107
-30 -135 -37 -29 -7 -53 -16 -53 -19 0 -3 15 -20 33 -38 29 -28 42 -32 122
-42 50 -5 96 -10 103 -10 8 0 12 -23 12 -82 1 -61 6 -94 20 -123 26 -54 29
-273 4 -320 -10 -19 -16 -59 -17 -105 l-2 -75 -97 -19 c-60 -11 -98 -23 -98
-31 0 -19 70 -104 91 -110 10 -4 19 -10 19 -15 0 -11 -88 -19 -255 -22 l-139
-3 -9 40 c-4 22 -6 58 -2 80 3 22 6 52 6 67 0 14 6 32 14 38 20 17 19 35 -7
80 l-23 39 23 31 c21 28 23 38 16 98 -8 86 -46 217 -83 290 -46 91 -144 216
-218 277 -91 76 -281 203 -382 255 -84 44 -94 58 -66 94 12 16 12 21 0 32 -7
8 -22 14 -32 14 -11 0 -23 4 -28 8 -6 5 -32 17 -60 27 -39 14 -72 41 -155 126
-58 60 -114 125 -125 145 -15 27 -32 41 -65 53 -52 19 -63 46 -30 76 25 23 26
41 0 55 -31 17 -27 74 10 120 39 50 39 78 -1 92 -23 8 -29 15 -26 29 3 11 1
22 -4 25 -15 9 -10 46 8 60 17 12 17 14 -5 43 -12 17 -23 43 -23 58 -1 25 -2
25 -8 -7 -4 -19 -13 -46 -20 -59 -12 -22 -11 -26 10 -42 21 -15 22 -20 11 -44
-7 -14 -10 -30 -7 -35 3 -4 -11 -17 -30 -29 -44 -26 -44 -48 0 -91 20 -19 37
-48 41 -67 5 -28 2 -38 -22 -60 l-28 -26 27 -21 c40 -32 35 -60 -12 -79 -40
-16 -81 -63 -74 -84 2 -6 -4 -17 -14 -25 -10 -7 -49 -50 -86 -94 -80 -98 -128
-141 -176 -161 -79 -32 -91 -38 -96 -52 -3 -8 -1 -19 5 -25 25 -25 10 -53 -47
-91 -135 -89 -284 -209 -373 -301 -107 -110 -141 -156 -193 -259 -49 -98 -67
-165 -74 -275 -5 -81 -3 -97 11 -109 21 -17 21 -65 -1 -97 -15 -24 -15 -29 -1
-57 25 -50 40 -136 36 -207 l-3 -65 -141 -3 -142 -3 -7 128 c-10 163 -11 498
-3 583 5 49 12 69 28 82 17 13 19 19 9 23 -8 3 -34 30 -59 59 -39 48 -45 53
-57 38 -7 -9 -13 -15 -13 -12 0 3 -7 62 -15 130 -18 145 -34 211 -74 308 -30
74 -29 82 7 101 31 16 28 30 -12 46 -19 8 -37 24 -41 35 -3 11 -11 20 -16 20
-6 0 -21 12 -35 27 -22 24 -23 28 -9 49 8 13 11 25 6 28 -5 3 -9 28 -9 54 0
65 -12 132 -23 132 -5 0 -10 -28 -10 -62 -3 -111 -4 -121 -14 -124 -5 -2 -30
24 -55 57 -76 102 -220 240 -368 352 -78 60 -142 115 -142 123 0 8 5 25 11 37
9 15 9 22 1 25 -6 2 -8 10 -5 18 4 10 -2 14 -21 14 -15 0 -26 6 -26 14 0 8
-16 16 -40 20 -22 3 -40 10 -40 15 0 5 -12 11 -28 14 -34 7 -138 96 -324 275
-79 76 -153 144 -166 151 -18 10 -20 15 -10 30 20 32 -29 86 -97 106 -46 13
-55 19 -55 39 0 12 9 31 20 41 26 23 26 61 0 75 -27 14 -22 75 7 99 51 40 49
92 -4 112 -20 7 -23 13 -15 21 9 9 8 16 -5 30 -15 17 -15 19 0 36 21 23 21 36
0 68 -9 14 -18 51 -20 82 -5 68 -22 94 -25 37z m5100 -2697 c18 -18 16 -241
-3 -277 -12 -24 -52 -48 -62 -38 -1 2 -5 53 -9 114 -7 111 -7 112 20 143 14
17 26 40 26 51 0 22 11 24 28 7z m92 -149 c0 -27 -4 -49 -10 -49 -5 0 -10 25
-10 56 0 34 4 53 10 49 6 -3 10 -28 10 -56z m-3 -91 c-3 -8 -6 -5 -6 6 -1 11
2 17 5 13 3 -3 4 -12 1 -19z m-11084 -341 c22 -54 24 -202 3 -252 -14 -33 -17
-35 -65 -35 l-51 0 0 88 c0 68 4 95 20 125 11 20 20 46 20 57 0 17 35 60 49
60 3 0 14 -19 24 -43z m-223 4 c5 -11 10 -62 10 -113 0 -75 -4 -103 -21 -137
-19 -40 -22 -42 -57 -39 l-37 3 -3 106 c-2 85 0 108 13 119 8 7 15 19 15 26 0
47 59 73 80 35z m60 -45 c0 -14 5 -28 10 -31 6 -3 10 -51 10 -108 0 -96 -1
-100 -17 -84 -14 14 -19 40 -22 132 -2 80 0 115 8 115 6 0 11 -11 11 -24z
m-254 -93 c-7 -142 -26 -162 -26 -26 0 103 5 133 21 133 6 0 8 -44 5 -107z
m544 -16 c0 -97 -8 -127 -32 -127 -11 0 -10 174 2 204 20 53 30 26 30 -77z
m-490 3 c0 -53 -4 -90 -10 -90 -6 0 -10 37 -10 90 0 53 4 90 10 90 6 0 10 -37
10 -90z m417 -42 c-2 -24 -4 -5 -4 42 0 47 2 66 4 43 2 -24 2 -62 0 -85z
m11703 20 c0 -48 -29 -98 -56 -98 -26 0 -34 17 -34 69 0 32 5 41 38 62 42 28
52 23 52 -33z m-10001 -224 c13 -16 21 -41 21 -64 0 -31 -4 -39 -22 -44 -36
-9 -96 -7 -103 4 -9 14 24 102 44 118 22 18 37 15 60 -14z m194 -13 c9 -16 17
-40 17 -54 0 -26 -27 -37 -96 -37 -33 0 -47 21 -24 35 6 3 10 16 10 28 1 37
37 70 66 60 5 -2 18 -17 27 -32z m-363 -57 c0 -38 -3 -45 -17 -42 -22 4 -28
39 -13 67 18 34 30 24 30 -25z"/>
</g>
</svg>
